<svg width="112" height="42" viewBox="0 0 112 42" fill="none" xmlns="http://www.w3.org/2000/svg">
<path d="M20.944 4.96V5.64H18.632L11.39 24H10.506L1.972 5.64H0.34V4.96H9.962V5.64H8.296L13.26 17.03L17.748 5.64H15.028V4.96H20.944ZM29.4432 23.32H31.1432V24H22.6432V23.32H24.3432V9.04H22.9832V8.36H29.4432V23.32ZM29.7492 3.872C29.7492 4.688 29.4545 5.39067 28.8652 5.98C28.2985 6.54667 27.5959 6.83 26.7572 6.83C25.9412 6.83 25.2385 6.54667 24.6492 5.98C24.0599 5.39067 23.7652 4.688 23.7652 3.872C23.7652 3.03333 24.0599 2.31933 24.6492 1.73C25.2385 1.14067 25.9412 0.845998 26.7572 0.845998C27.5959 0.845998 28.2985 1.14067 28.8652 1.73C29.4545 2.31933 29.7492 3.03333 29.7492 3.872ZM39.9598 24.408C38.1238 24.408 36.5372 23.6827 35.1998 22.232C33.8625 20.7813 33.1938 18.73 33.1938 16.078C33.1938 13.426 33.8512 11.352 35.1658 9.856C36.4805 8.36 38.0785 7.612 39.9598 7.612C40.8892 7.612 41.7618 7.80467 42.5778 8.19C43.3938 8.57533 43.9832 9.15333 44.3458 9.924V1.9H42.6458V1.22H49.4458V23.32H51.1458V24H44.3458V22.436C43.7338 23.7507 42.2718 24.408 39.9598 24.408ZM44.3458 16.554V10.944C43.7338 9.72 42.9292 9.108 41.9318 9.108C40.9572 9.108 40.1185 9.67467 39.4158 10.808C38.7132 11.9413 38.3618 13.7433 38.3618 16.214C38.3618 18.662 38.7245 20.4527 39.4498 21.586C40.1752 22.7193 41.0478 23.2067 42.0678 23.048C42.6345 22.9573 43.0652 22.776 43.3598 22.504C44.0172 21.8693 44.3458 19.886 44.3458 16.554ZM65.2521 24V22.198C64.8214 22.81 64.1414 23.3313 63.2121 23.762C62.3054 24.17 61.3194 24.374 60.2541 24.374C56.2194 24.374 54.2021 22.1867 54.2021 17.812V9.04H52.5021V8.36H59.3021V18.56C59.3021 20.1693 59.5401 21.314 60.0161 21.994C60.4921 22.674 61.2061 23.014 62.1581 23.014C63.4274 23.014 64.4588 22.334 65.2521 20.974V9.04H63.5521V8.36H70.3521V23.32H72.0521V24H65.2521ZM82.9401 24H74.4401V23.32H76.1401V9.04H74.4401V8.36H81.2401V12.406C81.4441 11.2953 81.8067 10.3887 82.3281 9.686C82.8721 8.98333 83.4614 8.51867 84.0961 8.292C84.7534 8.06533 85.3767 7.952 85.9661 7.952C86.5781 7.952 87.1561 8.06533 87.7001 8.292C88.2667 8.496 88.6861 8.92667 88.9581 9.584C89.2301 10.2187 89.2414 10.8647 88.9921 11.522C88.7427 12.1567 88.3007 12.61 87.6661 12.882C87.0541 13.154 86.4874 13.188 85.9661 12.984C85.4447 12.78 85.0707 12.508 84.8441 12.168C84.6174 11.8053 84.4587 11.4653 84.3681 11.148C84.1414 10.3093 83.8354 9.89 83.4501 9.89C83.0194 9.89 82.5434 10.638 82.0221 12.134C81.5007 13.6073 81.2401 15.1713 81.2401 16.826V23.32H82.9401V24ZM107.366 23.32C107.139 23.5467 106.708 23.7507 106.074 23.932C105.439 24.0907 104.702 24.17 103.864 24.17C102.005 24.17 100.838 23.6147 100.362 22.504C99.2283 23.6827 97.4943 24.272 95.1596 24.272C93.913 24.272 92.8816 23.9887 92.0656 23.422C91.2723 22.8327 90.8756 21.9713 90.8756 20.838C90.8756 19.3193 91.465 18.152 92.6436 17.336C93.8223 16.4973 95.885 15.908 98.8316 15.568L100.192 15.398V13.732C100.192 11.76 100.044 10.434 99.7496 9.754C99.455 9.074 98.8656 8.734 97.9816 8.734C97.1203 8.734 96.565 8.85867 96.3156 9.108C96.0663 9.33467 95.9756 9.60667 96.0436 9.924C96.1116 10.2187 96.225 10.6153 96.3836 11.114C96.5423 11.6127 96.6216 12.0093 96.6216 12.304C96.6216 13.0067 96.3723 13.6073 95.8736 14.106C95.3976 14.582 94.8083 14.82 94.1056 14.82C93.4256 14.82 92.8363 14.582 92.3376 14.106C91.839 13.6073 91.5896 13.0067 91.5896 12.304C91.5896 11.148 92.179 10.162 93.3576 9.346C94.559 8.50733 96.3383 8.088 98.6956 8.088C101.076 8.088 102.764 8.55267 103.762 9.482C104.782 10.4113 105.292 12.0547 105.292 14.412V20.532C105.292 21.7333 105.439 22.4927 105.734 22.81C106.028 23.1047 106.572 23.1613 107.366 22.98V23.32ZM95.6016 20.158C95.715 21.0193 96.0323 21.688 96.5536 22.164C97.075 22.6173 97.6756 22.844 98.3556 22.844C99.0583 22.844 99.6703 22.504 100.192 21.824V16.044L98.9676 16.214C97.925 16.35 97.075 16.7467 96.4176 17.404C95.783 18.0613 95.511 18.9793 95.6016 20.158Z" fill="white"/>
<path d="M6.272 29.64H8.512L12.688 41H10.416L9.36 38.168H5.392L4.352 41H2.08L6.272 29.64ZM8.96 36.616L7.392 31.928L5.76 36.616H8.96ZM27.0166 32.616H29.0486L25.5446 41H23.7526L22.3446 37.4L20.9686 41H19.1606L15.6726 32.616H17.6886L20.1846 38.952L21.1606 36.216L19.7046 32.632H21.4806L22.3446 35.192L23.2246 32.632H25.0006L23.5446 36.216L24.5366 38.952L27.0166 32.616ZM30.0385 41V32.616H32.1825V41H30.0385ZM30.0385 31.448V29.32H32.1825V31.448H30.0385ZM37.2046 41.16C36.49 41.16 35.8073 41.0427 35.1566 40.808C34.506 40.5733 33.946 40.2267 33.4766 39.768L34.2446 38.376C34.746 38.7813 35.2366 39.08 35.7166 39.272C36.2073 39.464 36.6766 39.56 37.1246 39.56C37.5406 39.56 37.8713 39.4853 38.1166 39.336C38.3726 39.1867 38.5006 38.9627 38.5006 38.664C38.5006 38.4613 38.4313 38.3067 38.2926 38.2C38.154 38.0827 37.9513 37.9813 37.6846 37.896C37.4286 37.8107 37.114 37.7147 36.7406 37.608C36.122 37.4053 35.6046 37.208 35.1886 37.016C34.7726 36.824 34.458 36.584 34.2446 36.296C34.042 35.9973 33.9406 35.6187 33.9406 35.16C33.9406 34.6053 34.0793 34.1307 34.3566 33.736C34.6446 33.3307 35.0393 33.016 35.5406 32.792C36.0526 32.568 36.65 32.456 37.3326 32.456C37.93 32.456 38.4953 32.552 39.0286 32.744C39.562 32.9253 40.0473 33.224 40.4846 33.64L39.6206 35C39.194 34.6693 38.7886 34.4293 38.4046 34.28C38.0206 34.12 37.6313 34.04 37.2366 34.04C37.0126 34.04 36.7993 34.0667 36.5966 34.12C36.4046 34.1733 36.2446 34.264 36.1166 34.392C35.9993 34.5093 35.9406 34.68 35.9406 34.904C35.9406 35.1067 35.994 35.2667 36.1006 35.384C36.218 35.4907 36.3886 35.5867 36.6126 35.672C36.8473 35.7573 37.13 35.8533 37.4606 35.96C38.1326 36.152 38.698 36.3493 39.1566 36.552C39.626 36.7547 39.978 37.0053 40.2126 37.304C40.4473 37.592 40.5646 37.992 40.5646 38.504C40.5646 39.336 40.2606 39.9867 39.6526 40.456C39.0446 40.9253 38.2286 41.16 37.2046 41.16ZM45.9109 41.16C45.2389 41.16 44.6309 41.048 44.0869 40.824C43.5429 40.5893 43.0789 40.2747 42.6949 39.88C42.3109 39.4747 42.0122 39.016 41.7989 38.504C41.5962 37.9813 41.4949 37.432 41.4949 36.856C41.4949 36.056 41.6709 35.3253 42.0229 34.664C42.3855 34.0027 42.8975 33.4747 43.5589 33.08C44.2309 32.6747 45.0202 32.472 45.9269 32.472C46.8442 32.472 47.6282 32.6747 48.2789 33.08C48.9295 33.4747 49.4255 34.0027 49.7669 34.664C50.1189 35.3147 50.2949 36.0187 50.2949 36.776C50.2949 36.904 50.2895 37.0373 50.2789 37.176C50.2682 37.304 50.2575 37.4107 50.2469 37.496H43.7669C43.8095 37.9227 43.9322 38.296 44.1349 38.616C44.3482 38.936 44.6149 39.1813 44.9349 39.352C45.2655 39.512 45.6175 39.592 45.9909 39.592C46.4175 39.592 46.8175 39.4907 47.1909 39.288C47.5749 39.0747 47.8362 38.7973 47.9749 38.456L49.8149 38.968C49.6122 39.3947 49.3189 39.7733 48.9349 40.104C48.5615 40.4347 48.1189 40.696 47.6069 40.888C47.0949 41.0693 46.5295 41.16 45.9109 41.16ZM43.7189 36.136H48.1029C48.0602 35.7093 47.9375 35.3413 47.7349 35.032C47.5429 34.712 47.2869 34.4667 46.9669 34.296C46.6469 34.1147 46.2895 34.024 45.8949 34.024C45.5109 34.024 45.1589 34.1147 44.8389 34.296C44.5295 34.4667 44.2735 34.712 44.0709 35.032C43.8789 35.3413 43.7615 35.7093 43.7189 36.136ZM58.2408 29.64H60.4808L64.6568 41H62.3848L61.3288 38.168H57.3608L56.3207 41H54.0488L58.2408 29.64ZM60.9288 36.616L59.3608 31.928L57.7288 36.616H60.9288ZM64.9484 36.808C64.9484 35.9973 65.1084 35.2667 65.4284 34.616C65.7484 33.9547 66.191 33.432 66.7564 33.048C67.3217 32.664 67.967 32.472 68.6924 32.472C69.311 32.472 69.8657 32.6267 70.3564 32.936C70.8577 33.2347 71.247 33.6187 71.5244 34.088V29.32H73.6684V38.6C73.6684 38.824 73.7057 38.984 73.7804 39.08C73.855 39.176 73.983 39.2347 74.1644 39.256V41C73.791 41.0747 73.487 41.112 73.2524 41.112C72.8684 41.112 72.5484 41.016 72.2924 40.824C72.047 40.632 71.9084 40.3813 71.8764 40.072L71.8444 39.544C71.535 40.0667 71.1137 40.4667 70.5804 40.744C70.0577 41.0213 69.5084 41.16 68.9324 41.16C68.3564 41.16 67.823 41.048 67.3324 40.824C66.8524 40.6 66.431 40.2907 66.0684 39.896C65.7164 39.5013 65.439 39.0427 65.2364 38.52C65.0444 37.9867 64.9484 37.416 64.9484 36.808ZM71.5244 37.928V35.928C71.4177 35.6187 71.247 35.3413 71.0124 35.096C70.7777 34.8507 70.5164 34.6587 70.2284 34.52C69.9404 34.3707 69.6524 34.296 69.3644 34.296C69.0337 34.296 68.735 34.3653 68.4684 34.504C68.2017 34.6427 67.967 34.8293 67.7644 35.064C67.5724 35.2987 67.423 35.5707 67.3164 35.88C67.2204 36.1893 67.1724 36.5147 67.1724 36.856C67.1724 37.1973 67.2257 37.5227 67.3324 37.832C67.4497 38.1307 67.615 38.392 67.8284 38.616C68.0417 38.84 68.287 39.016 68.5644 39.144C68.8524 39.272 69.1617 39.336 69.4924 39.336C69.695 39.336 69.8977 39.304 70.1004 39.24C70.3137 39.1653 70.511 39.0693 70.6924 38.952C70.8844 38.824 71.0497 38.6747 71.1884 38.504C71.3377 38.3227 71.4497 38.1307 71.5244 37.928ZM77.9976 41L74.9096 32.616H77.1336L79.2456 39.048L81.3736 32.616H83.4056L80.3336 41H77.9976ZM84.5385 41V32.616H86.6825V41H84.5385ZM84.5385 31.448V29.32H86.6825V31.448H84.5385ZM91.7046 41.16C90.99 41.16 90.3073 41.0427 89.6566 40.808C89.006 40.5733 88.446 40.2267 87.9766 39.768L88.7446 38.376C89.246 38.7813 89.7366 39.08 90.2166 39.272C90.7073 39.464 91.1766 39.56 91.6246 39.56C92.0406 39.56 92.3713 39.4853 92.6166 39.336C92.8726 39.1867 93.0006 38.9627 93.0006 38.664C93.0006 38.4613 92.9313 38.3067 92.7926 38.2C92.654 38.0827 92.4513 37.9813 92.1846 37.896C91.9286 37.8107 91.614 37.7147 91.2406 37.608C90.622 37.4053 90.1046 37.208 89.6886 37.016C89.2726 36.824 88.958 36.584 88.7446 36.296C88.542 35.9973 88.4406 35.6187 88.4406 35.16C88.4406 34.6053 88.5793 34.1307 88.8566 33.736C89.1446 33.3307 89.5393 33.016 90.0406 32.792C90.5526 32.568 91.15 32.456 91.8326 32.456C92.43 32.456 92.9953 32.552 93.5286 32.744C94.062 32.9253 94.5473 33.224 94.9846 33.64L94.1206 35C93.694 34.6693 93.2886 34.4293 92.9046 34.28C92.5206 34.12 92.1313 34.04 91.7366 34.04C91.5126 34.04 91.2993 34.0667 91.0966 34.12C90.9046 34.1733 90.7446 34.264 90.6166 34.392C90.4993 34.5093 90.4406 34.68 90.4406 34.904C90.4406 35.1067 90.494 35.2667 90.6006 35.384C90.718 35.4907 90.8886 35.5867 91.1126 35.672C91.3473 35.7573 91.63 35.8533 91.9606 35.96C92.6326 36.152 93.198 36.3493 93.6566 36.552C94.126 36.7547 94.478 37.0053 94.7126 37.304C94.9473 37.592 95.0646 37.992 95.0646 38.504C95.0646 39.336 94.7606 39.9867 94.1526 40.456C93.5446 40.9253 92.7286 41.16 91.7046 41.16ZM100.411 41.16C99.7389 41.16 99.1309 41.048 98.5869 40.824C98.0429 40.5893 97.5789 40.2747 97.1949 39.88C96.8109 39.4747 96.5122 39.016 96.2989 38.504C96.0962 37.9813 95.9949 37.432 95.9949 36.856C95.9949 36.056 96.1709 35.3253 96.5229 34.664C96.8855 34.0027 97.3975 33.4747 98.0589 33.08C98.7309 32.6747 99.5202 32.472 100.427 32.472C101.344 32.472 102.128 32.6747 102.779 33.08C103.43 33.4747 103.926 34.0027 104.267 34.664C104.619 35.3147 104.795 36.0187 104.795 36.776C104.795 36.904 104.79 37.0373 104.779 37.176C104.768 37.304 104.758 37.4107 104.747 37.496H98.2669C98.3095 37.9227 98.4322 38.296 98.6349 38.616C98.8482 38.936 99.1149 39.1813 99.4349 39.352C99.7655 39.512 100.118 39.592 100.491 39.592C100.918 39.592 101.318 39.4907 101.691 39.288C102.075 39.0747 102.336 38.7973 102.475 38.456L104.315 38.968C104.112 39.3947 103.819 39.7733 103.435 40.104C103.062 40.4347 102.619 40.696 102.107 40.888C101.595 41.0693 101.03 41.16 100.411 41.16ZM98.2189 36.136H102.603C102.56 35.7093 102.438 35.3413 102.235 35.032C102.043 34.712 101.787 34.4667 101.467 34.296C101.147 34.1147 100.79 34.024 100.395 34.024C100.011 34.024 99.6589 34.1147 99.3389 34.296C99.0295 34.4667 98.7735 34.712 98.5709 35.032C98.3789 35.3413 98.2615 35.7093 98.2189 36.136ZM111.093 34.472C110.442 34.472 109.861 34.6 109.349 34.856C108.837 35.1013 108.469 35.4587 108.245 35.928V41H106.101V32.616H108.069V34.408C108.368 33.832 108.746 33.3787 109.205 33.048C109.664 32.7173 110.149 32.536 110.661 32.504C110.778 32.504 110.869 32.504 110.933 32.504C110.997 32.504 111.05 32.5093 111.093 32.52V34.472Z" fill="white"/>
</svg>
