<svg width="50" height="50" viewBox="0 0 50 50" fill="none" xmlns="http://www.w3.org/2000/svg">
<path d="M46.875 44.6875L42.5 40.3125C43.2813 39.0625 43.75 37.5 43.75 35.9375C43.75 31.5625 40.3125 28.125 35.9375 28.125C31.5625 28.125 28.125 31.5625 28.125 35.9375C28.125 40.3125 31.5625 43.75 35.9375 43.75C37.5 43.75 39.0625 43.2813 40.3125 42.5L44.6875 46.875L46.875 44.6875ZM31.25 35.9375C31.25 33.2812 33.2812 31.25 35.9375 31.25C38.5938 31.25 40.625 33.2812 40.625 35.9375C40.625 38.5938 38.5938 40.625 35.9375 40.625C33.2812 40.625 31.25 38.5938 31.25 35.9375ZM12.5 25H28.125V28.125H12.5V25ZM12.5 15.625H31.25V18.75H12.5V15.625Z" fill="#FF9933"/>
<path d="M21.875 43.2812L13.75 38.9062C9.0625 36.5625 6.25 31.7188 6.25 26.5625V6.25H37.5V23.4375H40.625V6.25C40.625 4.53125 39.2188 3.125 37.5 3.125H6.25C4.53125 3.125 3.125 4.53125 3.125 6.25V26.5625C3.125 32.9688 6.5625 38.75 12.1875 41.7188L21.875 46.875V43.2812Z" fill="#FF9933"/>
</svg>
