<svg width="196" height="196" viewBox="0 0 196 196" fill="none" xmlns="http://www.w3.org/2000/svg">
<path d="M50 25V50H25V25H50ZM12.5 12.5V62.5H62.5V12.5H12.5ZM112.5 43.75V68.75H87.5V43.75H112.5ZM75 31.25V81.25H125V31.25H75ZM50 100V125H25V100H50ZM12.5 87.5V137.5H62.5V87.5H12.5Z" fill="#FF9933"/>
<path d="M137.5 62.5V100H100V137.5H62.5V187.5H187.5V62.5H137.5ZM112.5 112.5H137.5V137.5H112.5V112.5ZM100 175H75V150H100V175ZM137.5 175H112.5V150H137.5V175ZM175 175H150V150H175V175ZM175 137.5H150V112.5H175V137.5ZM150 100V75H175V100H150Z" fill="#FF9933"/>
</svg>
