<svg width="30" height="30" viewBox="0 0 30 30" fill="none" xmlns="http://www.w3.org/2000/svg">
<path d="M25.7144 3.21436H4.15186C3.6333 3.21436 3.21436 3.6333 3.21436 4.15186V25.7144C3.21436 26.2329 3.6333 26.6519 4.15186 26.6519H25.7144C26.2329 26.6519 26.6519 26.2329 26.6519 25.7144V4.15186C26.6519 3.6333 26.2329 3.21436 25.7144 3.21436ZM24.7769 24.7769H19.3833V17.5757H22.4302L22.8872 14.0396H19.3833V11.7808C19.3833 10.7554 19.6675 10.0581 21.1353 10.0581H23.0073V6.89404C22.6821 6.8501 21.5718 6.75342 20.2769 6.75342C17.5757 6.75342 15.727 8.40283 15.727 11.4292V14.0366H12.6743V17.5728H15.73V24.7769H5.08936V5.08936H24.7769V24.7769Z" fill="white"/>
</svg>
