<svg width="28" height="28" viewBox="0 0 28 28" fill="none" xmlns="http://www.w3.org/2000/svg">
<path d="M13.9999 7.58325C14.7735 7.58325 15.5153 7.89054 16.0623 8.43752C16.6093 8.9845 16.9166 9.72637 16.9166 10.4999C16.9166 10.8829 16.8411 11.2622 16.6946 11.6161C16.548 11.9699 16.3332 12.2915 16.0623 12.5623C15.7915 12.8332 15.4699 13.048 15.1161 13.1946C14.7622 13.3411 14.3829 13.4166 13.9999 13.4166C13.2264 13.4166 12.4845 13.1093 11.9375 12.5623C11.3905 12.0153 11.0833 11.2735 11.0833 10.4999C11.0833 9.72637 11.3905 8.9845 11.9375 8.43752C12.4845 7.89054 13.2264 7.58325 13.9999 7.58325ZM13.9999 2.33325C16.1659 2.33325 18.2431 3.19367 19.7746 4.72521C21.3062 6.25676 22.1666 8.33398 22.1666 10.4999C22.1666 16.6249 13.9999 25.6666 13.9999 25.6666C13.9999 25.6666 5.83325 16.6249 5.83325 10.4999C5.83325 8.33398 6.69367 6.25676 8.22521 4.72521C9.75676 3.19367 11.834 2.33325 13.9999 2.33325ZM13.9999 4.66659C12.4528 4.66659 10.9691 5.28117 9.87513 6.37513C8.78117 7.46909 8.16659 8.95282 8.16659 10.4999C8.16659 11.6666 8.16659 13.9999 13.9999 21.8283C19.8333 13.9999 19.8333 11.6666 19.8333 10.4999C19.8333 8.95282 19.2187 7.46909 18.1247 6.37513C17.0307 5.28117 15.547 4.66659 13.9999 4.66659Z" fill="white"/>
</svg>
