<svg width="50" height="50" viewBox="0 0 50 50" fill="none" xmlns="http://www.w3.org/2000/svg">
<g clip-path="url(#clip0_26_101)">
<path d="M36.9792 20.6104C38.7158 20.6104 40.3813 19.9205 41.6092 18.6925M36.9792 20.6104C35.2425 20.6104 33.5771 19.9205 32.3491 18.6925M36.9792 20.6104V25.5208M41.6092 18.6925C42.8372 17.4646 43.5271 15.7991 43.5271 14.0625M41.6092 18.6925L45.0812 22.1645M43.5271 14.0625C43.5271 12.3258 42.8372 10.6604 41.6092 9.43238M43.5271 14.0625H48.4375M41.6092 9.43238C40.3813 8.20441 38.7158 7.51454 36.9792 7.51454M41.6092 9.43238L45.0812 5.96038M36.9792 7.51454C35.2425 7.51454 33.5771 8.20441 32.3491 9.43238M36.9792 7.51454V2.60413M32.3491 9.43238C31.1211 10.6604 30.4312 12.3258 30.4312 14.0625M32.3491 9.43238L28.8771 5.96038M30.4312 14.0625C30.4312 15.7991 31.1211 17.4646 32.3491 18.6925M30.4312 14.0625H25.5208M32.3491 18.6925L28.8771 22.1645M35.8875 2.60413H38.0708M44.3104 5.18954L45.8521 6.73121M48.4375 12.9708V15.1541M45.8521 21.3937L44.3104 22.9354M38.0708 25.5208H35.8875M29.6479 22.9354L28.1062 21.3937M25.5208 15.1541V12.9708M28.1062 6.73121L29.6479 5.18954M15.625 31.25L19.1104 28.6354C19.466 28.3683 19.8723 28.1767 20.3045 28.0722C20.7366 27.9677 21.1856 27.9525 21.6239 28.0276C22.0622 28.1027 22.4805 28.2665 22.8532 28.5089C23.226 28.7513 23.5453 29.0673 23.7917 29.4375C24.1493 29.9743 24.3402 30.6049 24.3402 31.25C24.3402 31.895 24.1493 32.5256 23.7917 33.0625L20.3646 38.202C19.3115 39.7807 17.8041 41.0026 16.0417 41.7062L10.9375 43.75M17.1875 20.3125L9.69792 23.5229C7.4851 24.4707 5.72166 26.2334 4.77292 28.4458L2.32083 34.1666C1.82022 35.3345 1.56222 36.5919 1.5625 37.8625V48.4375" stroke="#FF9933" stroke-width="3" stroke-linecap="round" stroke-linejoin="round"/>
<path d="M48.4375 29.6875V43.75C48.4375 44.9932 47.9436 46.1855 47.0646 47.0646C46.1855 47.9436 44.9932 48.4375 43.75 48.4375H21.875C20.6318 48.4375 19.4395 47.9436 18.5604 47.0646C17.6814 46.1855 17.1875 44.9932 17.1875 43.75V41.1562M17.1875 30.0771V6.25C17.1875 5.0068 17.6814 3.81451 18.5604 2.93544C19.4395 2.05636 20.6318 1.5625 21.875 1.5625H25.5208" stroke="#FF9933" stroke-width="3" stroke-linecap="round" stroke-linejoin="round"/>
</g>
<defs>
<clipPath id="clip0_26_101">
<rect width="50" height="50" fill="white"/>
</clipPath>
</defs>
</svg>
