<svg width="192" height="196" viewBox="0 0 192 196" fill="none" xmlns="http://www.w3.org/2000/svg">
<path d="M92 30C88.0218 30 84.2064 31.5804 81.3934 34.3934C78.5804 37.2064 77 41.0218 77 45C77 48.9782 78.5804 52.7936 81.3934 55.6066C84.2064 58.4197 88.0218 60 92 60C95.9782 60 99.7936 58.4197 102.607 55.6066C105.42 52.7936 107 48.9782 107 45C107 41.0218 105.42 37.2064 102.607 34.3934C99.7936 31.5804 95.9782 30 92 30ZM67 45C67 38.3696 69.6339 32.0107 74.3223 27.3223C79.0107 22.6339 85.3696 20 92 20C98.6304 20 104.989 22.6339 109.678 27.3223C114.366 32.0107 117 38.3696 117 45C117 51.6304 114.366 57.9893 109.678 62.6777C104.989 67.3661 98.6304 70 92 70C85.3696 70 79.0107 67.3661 74.3223 62.6777C69.6339 57.9893 67 51.6304 67 45ZM147 40C144.348 40 141.804 41.0536 139.929 42.9289C138.054 44.8043 137 47.3478 137 50C137 52.6522 138.054 55.1957 139.929 57.0711C141.804 58.9464 144.348 60 147 60C149.652 60 152.196 58.9464 154.071 57.0711C155.946 55.1957 157 52.6522 157 50C157 47.3478 155.946 44.8043 154.071 42.9289C152.196 41.0536 149.652 40 147 40ZM127 50C127 44.6957 129.107 39.6086 132.858 35.8579C136.609 32.1071 141.696 30 147 30C152.304 30 157.391 32.1071 161.142 35.8579C164.893 39.6086 167 44.6957 167 50C167 55.3043 164.893 60.3914 161.142 64.1421C157.391 67.8929 152.304 70 147 70C141.696 70 136.609 67.8929 132.858 64.1421C129.107 60.3914 127 55.3043 127 50ZM27 50C27 47.3478 28.0536 44.8043 29.9289 42.9289C31.8043 41.0536 34.3478 40 37 40C39.6522 40 42.1957 41.0536 44.0711 42.9289C45.9464 44.8043 47 47.3478 47 50C47 52.6522 45.9464 55.1957 44.0711 57.0711C42.1957 58.9464 39.6522 60 37 60C34.3478 60 31.8043 58.9464 29.9289 57.0711C28.0536 55.1957 27 52.6522 27 50ZM37 30C31.6957 30 26.6086 32.1071 22.8579 35.8579C19.1071 39.6086 17 44.6957 17 50C17 55.3043 19.1071 60.3914 22.8579 64.1421C26.6086 67.8929 31.6957 70 37 70C42.3043 70 47.3914 67.8929 51.1421 64.1421C54.8929 60.3914 57 55.3043 57 50C57 44.6957 54.8929 39.6086 51.1421 35.8579C47.3914 32.1071 42.3043 30 37 30ZM43 149.98C40.2923 150.116 37.5854 149.699 35.0436 148.756C32.5018 147.813 30.1783 146.363 28.2141 144.495C26.25 142.626 24.6863 140.377 23.6181 137.886C22.5498 135.394 21.9993 132.711 22 130V92.5C22 91.837 22.2634 91.2011 22.7322 90.7322C23.2011 90.2634 23.837 90 24.5 90H42.14C42.54 86.33 43.84 82.92 45.79 80H24.5C17.6 80 12 85.6 12 92.5V130C11.9995 134.281 12.9154 138.513 14.686 142.411C16.4566 146.309 19.041 149.782 22.2655 152.599C25.4901 155.415 29.28 157.508 33.3807 158.738C37.4813 159.968 41.7978 160.307 46.04 159.73C44.6941 156.593 43.6754 153.326 43 149.98ZM137.96 159.73C142.202 160.307 146.519 159.968 150.619 158.738C154.72 157.508 158.51 155.415 161.734 152.599C164.959 149.782 167.543 146.309 169.314 142.411C171.085 138.513 172 134.281 172 130V92.5C172 85.6 166.4 80 159.5 80H138.21C140.17 82.92 141.46 86.33 141.86 90H159.5C160.163 90 160.799 90.2634 161.268 90.7322C161.737 91.2011 162 91.837 162 92.5V130C162.001 132.711 161.45 135.394 160.382 137.886C159.314 140.377 157.75 142.626 155.786 144.495C153.822 146.363 151.498 147.813 148.956 148.756C146.415 149.699 143.708 150.116 141 149.98C140.324 153.326 139.306 156.593 137.96 159.73ZM64.5 80C57.6 80 52 85.6 52 92.5V140C52 150.609 56.2143 160.783 63.7157 168.284C71.2172 175.786 81.3913 180 92 180C102.609 180 112.783 175.786 120.284 168.284C127.786 160.783 132 150.609 132 140V92.5C132 85.6 126.4 80 119.5 80H64.5ZM62 92.5C62 91.837 62.2634 91.2011 62.7322 90.7322C63.2011 90.2634 63.837 90 64.5 90H119.5C120.163 90 120.799 90.2634 121.268 90.7322C121.737 91.2011 122 91.837 122 92.5V140C122 147.956 118.839 155.587 113.213 161.213C107.587 166.839 99.9565 170 92 170C84.0435 170 76.4129 166.839 70.7868 161.213C65.1607 155.587 62 147.956 62 140V92.5Z" fill="#FF9933"/>
</svg>
