<svg width="30" height="30" viewBox="0 0 30 30" fill="none" xmlns="http://www.w3.org/2000/svg">
<path d="M24.5088 8.74375C24.4137 8.37125 24.1438 8.09 23.835 8.00375C23.2875 7.85 20.6263 7.5 15.0013 7.5C9.37625 7.5 6.71625 7.85 6.165 8.00375C5.86 8.08875 5.59 8.37 5.49375 8.74375C5.3575 9.27375 5.00125 11.4938 5.00125 15C5.00125 18.505 5.3575 20.725 5.49375 21.2575C5.58875 21.6287 5.85875 21.91 6.16625 21.995C6.71625 22.15 9.375 22.5 15 22.5C20.625 22.5 23.2863 22.15 23.8363 21.9963C24.1413 21.9113 24.4113 21.63 24.5075 21.2562C24.645 20.7262 25 18.5 25 15C25 11.5 24.645 9.275 24.5088 8.74375ZM26.93 8.1225C27.5013 10.35 27.5012 15 27.5012 15C27.5012 15 27.5013 19.65 26.93 21.8775C26.6125 23.1088 25.6838 24.0775 24.5075 24.405C22.3713 25 15 25 15 25C15 25 7.63375 25 5.49375 24.405C4.3125 24.0725 3.385 23.105 3.07125 21.8775C2.5 19.65 2.5 15 2.5 15C2.5 15 2.5 10.35 3.07125 8.1225C3.38875 6.89125 4.3175 5.9225 5.49375 5.595C7.635 5 15.0013 5 15.0013 5C15.0013 5 22.3713 5 24.5075 5.595C25.6875 5.9275 26.6163 6.895 26.93 8.1225ZM12.5013 19.375V10.625L20.0012 15L12.5013 19.375Z" fill="#F8F8F8"/>
</svg>
